<svg xmlns="http://www.w3.org/2000/svg" viewBox="0 0 128 128">
  <defs>
    <linearGradient id="brand" x1="18" y1="14" x2="108" y2="114" gradientUnits="userSpaceOnUse">
      <stop stop-color="#A78BFA"/>
      <stop offset="0.5" stop-color="#7C3AED"/>
      <stop offset="1" stop-color="#5B21B6"/>
    </linearGradient>
  </defs>
  <rect x="4" y="4" width="120" height="120" rx="28" fill="url(#brand)"/>
  <path d="M25 48 99 30a7 7 0 0 1 8 5l3 12-82 20-4-12a7 7 0 0 1 5-8Z" fill="#fff"/>
  <path d="m42 44 13-3-9 18-13 3 9-18Zm27-7 13-3-9 18-13 3 9-18Zm27-6 3-1a7 7 0 0 1 8 5l1 4-8 10-13 3 9-21Z" fill="#6D28D9"/>
  <path d="M25 65h85v34a9 9 0 0 1-9 9H34a9 9 0 0 1-9-9V65Z" fill="#fff"/>
  <path d="m59 77 22 12-22 12V77Z" fill="#7C3AED"/>
</svg>
